<svg width="157" height="14" viewBox="0 0 157 14" fill="none" xmlns="http://www.w3.org/2000/svg">
<g clip-path="url(#clip0_33_615)">
<path d="M91.4732 2.85457V13.0798H88.8317V11.8869C88.1074 12.8242 86.9997 13.378 85.5085 13.378C82.7818 13.378 80.5237 11.0348 80.5237 7.96719C80.5237 4.89962 82.7818 2.55634 85.5085 2.55634C86.9997 2.55634 88.1074 3.1102 88.8317 4.04752V2.85457H91.4732ZM88.8317 7.96719C88.8317 6.26298 87.6387 5.07004 85.9771 5.07004C84.3581 5.07004 83.1652 6.22038 83.1652 7.96719C83.1652 9.6714 84.3581 10.8643 85.9771 10.8643C87.6387 10.8643 88.8317 9.714 88.8317 7.96719Z" fill="#05DCB5"/>
<path d="M93.3479 7.96719C93.3479 4.89962 95.6486 2.55634 98.7588 2.55634C100.761 2.55634 102.508 3.62146 103.36 5.19785L101.102 6.51862C100.676 5.66651 99.8239 5.15525 98.7588 5.15525C97.1824 5.15525 96.032 6.30559 96.032 7.96719C96.032 9.58619 97.1824 10.7365 98.7588 10.7365C99.8239 10.7365 100.719 10.2253 101.102 9.37316L103.403 10.6939C102.508 12.2703 100.761 13.3354 98.7588 13.3354C95.6486 13.378 93.3479 11.0348 93.3479 7.96719Z" fill="#05DCB5"/>
<path d="M104.084 7.96719C104.084 4.89962 106.385 2.55634 109.495 2.55634C111.498 2.55634 113.245 3.62146 114.097 5.19785L111.839 6.51862C111.413 5.66651 110.56 5.15525 109.495 5.15525C107.919 5.15525 106.769 6.30559 106.769 7.96719C106.769 9.58619 107.919 10.7365 109.495 10.7365C110.56 10.7365 111.455 10.2253 111.839 9.37316L114.139 10.6939C113.245 12.2703 111.498 13.3354 109.495 13.3354C106.385 13.378 104.084 11.0348 104.084 7.96719Z" fill="#05DCB5"/>
<path d="M114.821 7.96719C114.821 4.89962 117.207 2.55634 120.232 2.55634C123.257 2.55634 125.643 4.89962 125.643 7.96719C125.643 11.0348 123.214 13.378 120.232 13.378C117.207 13.378 114.821 11.0348 114.821 7.96719ZM123.001 7.96719C123.001 6.30559 121.808 5.15525 120.232 5.15525C118.655 5.15525 117.462 6.30559 117.462 7.96719C117.462 9.62879 118.655 10.7791 120.232 10.7791C121.808 10.8217 123.001 9.62879 123.001 7.96719Z" fill="#05DCB5"/>
<path d="M136.89 2.85455V13.0798H134.249V11.9295C133.652 12.8668 132.587 13.378 131.181 13.378C129.008 13.378 127.304 11.8442 127.304 9.11751V2.85455H129.946V8.81928C129.946 10.2252 130.798 10.9495 131.991 10.9495C133.269 10.9495 134.249 10.1826 134.249 8.39322V2.85455H136.89Z" fill="#05DCB5"/>
<path d="M148.905 6.81685V13.1224H146.263V7.15769C146.263 5.75172 145.411 5.02743 144.218 5.02743C142.94 5.02743 141.96 5.79432 141.96 7.58374V13.1224H139.319V2.89717H141.96V4.04751C142.557 3.1102 143.622 2.59894 145.028 2.59894C147.201 2.59894 148.905 4.09012 148.905 6.81685Z" fill="#05DCB5"/>
<path d="M154.699 5.41085V9.67137C154.699 10.7791 155.509 10.7791 157 10.7365V13.1224C153.293 13.5484 152.058 12.4407 152.058 9.67137V5.41085H150.268V2.85455H152.058V0.809498L154.699 0V2.85455H157V5.41085H154.699Z" fill="#05DCB5"/>
<path d="M56.5372 5.1978C56.6224 5.1978 56.665 5.1978 56.7502 5.1978C56.9206 5.24041 57.1336 5.32562 57.1336 5.53865C57.1762 6.22033 57.3466 7.37067 58.7526 8.13756C60.5846 9.11748 62.5019 9.2879 62.4593 10.0548C62.4167 11.0773 60.116 11.0773 57.7727 10.0548C57.6875 10.0122 57.5597 10.0548 57.5171 10.14L56.4093 12.1424C56.3667 12.2277 56.3667 12.3555 56.4945 12.4407C57.0484 12.7389 59.1361 13.5484 61.4367 13.4632C64.2913 13.3354 65.6973 11.6312 65.7825 9.58613C65.7825 9.54353 65.7825 9.54353 65.8251 9.54353C66.0807 9.58613 66.3789 9.54353 66.5068 9.54353C66.5068 9.54353 66.5494 9.54353 66.5494 9.58613C66.6772 10.7365 67.4441 12.9093 70.3838 13.2502C73.0253 13.591 75.2408 12.7815 76.9876 11.4182C77.0728 11.3756 77.0728 11.2477 77.0302 11.1625L76.1355 9.41571C76.0929 9.2879 75.9225 9.2879 75.8373 9.3305C74.5591 10.3104 72.9827 10.8217 71.9602 10.7791C69.9578 10.7365 69.6595 9.88437 69.6595 9.62874C69.6595 9.58613 69.6595 9.58613 69.7021 9.58613C73.8348 9.79916 76.0929 7.49848 76.0503 5.45343C76.0503 4.51612 75.4112 2.85452 73.1106 2.59889C72.8975 2.55628 72.6419 2.55628 72.3863 2.55628C72.0028 2.55628 71.662 2.59889 71.2785 2.6841C71.2359 2.6841 71.2359 2.6841 71.1933 2.6841C70.3412 2.89713 69.5743 3.28057 68.8926 3.83444C67.8701 4.68654 67.0606 5.87949 66.7624 7.45588C66.7624 7.45588 66.7624 7.49848 66.7198 7.49848C66.0807 7.54109 65.0156 7.37067 64.3339 7.28546C64.0783 7.24285 63.8226 7.20025 63.567 7.15764C62.8427 7.02983 62.1184 6.7742 61.3941 6.43335C59.2639 5.41083 61.3515 3.87704 63.9505 5.41083C64.0357 5.45343 64.1635 5.45343 64.2487 5.32562L65.3564 3.66402C65.4416 3.57881 65.399 3.45099 65.2712 3.36578C64.5469 2.93973 61.3515 1.53376 58.5396 3.40839C58.5396 3.40839 57.6449 2.59889 56.2815 2.59889C54.4069 2.59889 53.6826 3.70662 53.6826 3.70662L53.853 2.76931C53.853 2.64149 53.7678 2.51368 53.64 2.51368H51.0837C50.9559 2.51368 50.8707 2.59889 50.8707 2.7267C50.8281 3.45099 50.615 6.09251 49.8481 7.49848C48.6978 9.71395 45.9285 10.8217 44.3947 10.7791C42.3922 10.7365 42.094 9.88437 42.094 9.62874C42.094 9.58613 42.094 9.58613 42.1366 9.58613C46.2693 9.79916 48.5274 7.49848 48.4848 5.45343C48.4848 4.43091 47.7605 2.55628 44.8207 2.55628C42.3496 2.55628 40.2194 4.17528 39.4099 6.68898C39.4099 6.73159 39.3673 6.73159 39.3673 6.68898C38.5152 5.87949 38.43 3.4936 38.43 2.76931C38.43 2.64149 38.3447 2.55628 38.2169 2.55628H35.9589C35.831 2.55628 35.7458 2.64149 35.7458 2.76931C35.7458 3.32318 35.7032 4.72915 35.4476 5.92209C34.7233 9.2879 33.5304 10.2678 32.9765 10.2252C32.5931 10.1826 32.4652 9.62874 32.4226 9.45832C32.2096 8.73403 31.1445 4.26049 30.8036 2.7267C30.8036 2.64149 30.7184 2.55628 30.5906 2.55628H27.7361C27.6082 2.55628 27.4804 2.6841 27.523 2.85452L27.6935 3.19536C29.5681 8.35059 24.8815 10.9069 22.5808 10.8643C20.5784 10.8217 20.2802 9.96958 20.2802 9.71395C20.2802 9.67134 20.2802 9.67135 20.3228 9.67135C24.4555 9.88437 26.7135 7.58369 26.6709 5.53865C26.6709 4.51612 25.9466 2.64149 23.0495 2.64149C20.4932 2.64149 18.2777 4.43091 17.5534 7.07243C17.5534 7.11504 17.5108 7.11504 17.4682 7.11504C16.1901 6.0073 16.0623 3.96225 16.0196 3.28057C16.0196 3.15276 15.9344 3.06755 15.8066 3.06755H13.5059C13.3781 3.06755 13.2929 3.15276 13.2929 3.28057C13.3781 4.81436 13.0373 6.90201 13.0373 6.90201C12.6112 10.0548 11.3757 10.6087 10.694 10.6087C10.0975 10.6087 9.92711 10.0548 10.0975 8.56361L10.7366 3.28057C10.7366 3.15276 10.6514 3.06755 10.5236 3.06755H8.00988C7.92467 3.06755 7.79685 3.15276 7.79685 3.23797L7.3282 6.90201C7.28559 7.32806 7.15777 7.71151 7.02996 8.09495C6.43349 10.0548 5.45357 10.5661 5.02752 10.5661C4.26062 10.5661 4.26062 9.79916 4.43104 8.39319L4.94231 5.28301C5.19794 3.57881 4.21802 2.93973 4.00499 2.81192C3.40852 2.51368 1.91734 2.47107 0.127923 3.45099C0.000107789 3.4936 -0.0424974 3.62141 0.000107793 3.74923L0.724395 5.45343C0.809606 5.53865 0.894816 5.58125 1.02263 5.53865C1.19305 5.49604 1.36347 5.41083 1.44868 5.41083C1.5765 5.41083 1.78952 5.41083 1.91734 5.53865C2.08776 5.70907 2.08776 6.0073 2.04516 6.13512L1.5765 9.16008C1.23566 11.6312 1.95995 13.378 4.13281 13.378C4.13281 13.378 6.09264 13.4632 7.3708 11.6312C7.4134 11.5886 7.45601 11.5886 7.45601 11.6312C7.79685 12.6537 8.64895 13.378 10.1827 13.378C12.5686 13.378 14.8267 12.0998 15.7214 8.4784C15.7214 8.4358 15.764 8.4358 15.8066 8.4784C16.0623 8.86185 16.6161 9.2879 17.17 9.50092L17.2126 9.54353C17.2126 9.88437 17.4682 12.8667 21.0471 13.2928C24.7111 13.7188 27.6935 11.9294 29.4829 9.50092L30.1646 11.2903C30.1646 11.2903 30.8888 13.3354 32.4652 13.3354C34.4677 13.3354 36.4701 11.546 37.5779 8.64882C37.6205 8.52101 37.6631 8.39319 37.7483 8.22277C37.7483 8.18016 37.7909 8.18016 37.8335 8.22277C38.1743 8.56361 38.5578 8.81924 38.9838 9.03227C38.9838 9.03227 38.9838 9.03227 38.9838 9.07487C38.8986 9.84177 39.2821 12.8667 42.8183 13.2928C45.6302 13.6336 47.9735 12.6963 49.7203 11.1625C49.7629 11.1199 49.8055 11.1625 49.8055 11.2051L49.5499 13.1224C49.5499 13.2502 49.6351 13.3354 49.7629 13.3354H52.3192C52.4044 13.3354 52.5323 13.2502 52.5323 13.165L52.9157 9.58613C53.1287 7.6263 53.7678 6.64638 54.5347 5.9647C55.3442 5.32562 56.2389 5.24041 56.5372 5.1978ZM20.2376 7.45588C20.408 6.43335 21.0044 5.79428 21.6435 5.36822C22.7087 4.68654 23.7312 4.77175 23.9868 5.1978C24.2424 5.62386 24.1572 6.43335 22.8365 7.07243C22.027 7.45588 21.2175 7.54109 20.2802 7.49848C20.2802 7.54109 20.2376 7.49848 20.2376 7.45588ZM42.0514 7.45588C42.2218 6.43335 42.8183 5.79428 43.4574 5.36822C44.5225 4.68654 45.545 4.77175 45.8006 5.1978C46.0563 5.62386 45.9711 6.43335 44.6503 7.07243C43.8408 7.45588 43.0313 7.54109 42.094 7.49848C42.094 7.54109 42.0514 7.49848 42.0514 7.45588ZM69.6169 7.45588C69.7874 6.43335 70.3838 5.79428 71.0229 5.36822C72.088 4.68654 73.1106 4.77175 73.3662 5.1978C73.6218 5.62386 73.5366 6.43335 72.2159 7.07243C71.4063 7.45588 70.5969 7.54109 69.6595 7.49848C69.6169 7.54109 69.6169 7.49848 69.6169 7.45588Z" fill="#05DCB5"/>
</g>
<defs>
<clipPath id="clip0_33_615">
<rect width="157" height="13.5058" fill="white"/>
</clipPath>
</defs>
</svg>
